<svg width="20" height="20" fill="none" xmlns="http://www.w3.org/2000/svg"><path d="M19.377 7.653c-.437-.547-1.033-.849-1.678-.849h-1.474C16.086 3.024 13.347 0 10 0 6.653 0 3.914 3.024 3.775 6.804H2.3c-.645 0-1.24.302-1.677.85-.552.685-.752 1.64-.543 2.558L1.848 18c.265 1.175 1.18 2 2.22 2h11.86c1.04 0 1.954-.82 2.22-2l1.771-7.788c.209-.918.009-1.873-.543-2.559zM10 1.665c2.433 0 4.425 2.278 4.556 5.14H5.444c.131-2.858 2.123-5.14 4.556-5.14zm8.295 8.176l-1.768 7.792c-.09.4-.347.702-.596.702H4.07c-.25 0-.506-.302-.596-.702L1.705 9.84c-.094-.412-.15-1.372.596-1.372H17.7c.804 0 .69.96.596 1.372z" fill="#262728"/><path d="M5.865 10.127a.831.831 0 00-.833.832v5.204a.83.83 0 00.833.833.83.83 0 00.833-.833V10.96a.831.831 0 00-.833-.832zm4.037 0a.831.831 0 00-.833.832v5.204a.83.83 0 00.833.833.831.831 0 00.833-.833V10.96a.836.836 0 00-.833-.832zm4.033 0a.831.831 0 00-.833.832v5.204a.83.83 0 00.833.833.83.83 0 00.833-.833V10.96a.834.834 0 00-.833-.832z" fill="#262728"/></svg>