<svg width="16" height="16" fill="none" xmlns="http://www.w3.org/2000/svg"><path d="M11.233 0H4.766A4.772 4.772 0 000 4.766v6.467A4.772 4.772 0 004.766 16h6.467A4.772 4.772 0 0016 11.233V4.766A4.772 4.772 0 0011.233 0zm3.157 11.233a3.157 3.157 0 01-3.157 3.157H4.766a3.157 3.157 0 01-3.156-3.157V4.766A3.157 3.157 0 014.766 1.61h6.467a3.157 3.157 0 013.157 3.156v6.467z" fill="#fff"/><path d="M8 3.862A4.143 4.143 0 003.862 8 4.143 4.143 0 008 12.138 4.143 4.143 0 0012.138 8 4.143 4.143 0 008 3.862zm0 6.667A2.529 2.529 0 118 5.47a2.529 2.529 0 010 5.058zm4.146-5.645a.992.992 0 100-1.983.992.992 0 000 1.983z" fill="#fff"/></svg>