<svg width="225" height="60" fill="none" xmlns="http://www.w3.org/2000/svg"><path d="M172.515 41.931h-4.513v-9.448l-8.432-14.415h5.389l5.247 9.763h.035l5.424-9.763h5.246l-8.396 14.415v9.448zm-15.054-6.473c0 2.052-.719 3.749-2.152 5.09-1.434 1.341-3.399 2.012-5.895 2.012-2.845 0-5.19-.712-7.032-2.135v-4.828h.105a8.13 8.13 0 003.01 2.205c1.187.512 2.378.77 3.568.77 2.588 0 3.883-.922 3.883-2.764 0-.864-.361-1.587-1.084-2.17-.724-.583-1.592-1.084-2.608-1.504a42.718 42.718 0 01-3.06-1.417c-1.027-.525-1.902-1.312-2.625-2.363-.723-1.049-1.084-2.333-1.084-3.848 0-1.983.636-3.656 1.906-5.021 1.271-1.364 3.179-2.047 5.721-2.047 2.612 0 4.781.712 6.507 2.134v4.829h-.105c-1.609-1.983-3.615-2.973-6.017-2.973-1.12 0-1.977.231-2.572.699-.594.466-.891 1.108-.891 1.924 0 .723.255 1.359.769 1.907.513.549 1.154.98 1.924 1.295.77.314 1.609.699 2.519 1.154.91.455 1.748.934 2.52 1.435.769.502 1.409 1.236 1.923 2.204.513.967.77 2.106.77 3.412zm-18.557 6.473h-5.458l-8.082-12.002v-.174l7.732-11.687h5.353l-7.872 11.651v.07l8.327 12.142zm-13.995 0h-4.512V18.068h4.512v23.863zm-11.932-21.117c2.192 2.252 3.287 5.313 3.287 9.185 0 3.872-1.095 6.934-3.287 9.186-2.193 2.25-4.992 3.375-8.397 3.375-3.312 0-6.07-1.126-8.274-3.375C94.102 36.933 93 33.87 93 29.999s1.102-6.933 3.306-9.184c2.204-2.252 5.009-3.378 8.414-3.378 3.311 0 6.064 1.126 8.257 3.377zm-1.4 9.185c0-2.612-.642-4.66-1.924-6.141-1.283-1.48-2.928-2.221-4.933-2.221-2.029 0-3.702.728-5.021 2.187-1.317 1.458-1.977 3.516-1.977 6.175 0 2.612.642 4.665 1.926 6.158 1.282 1.493 2.926 2.239 4.932 2.239 2.029 0 3.703-.735 5.021-2.204 1.317-1.469 1.976-3.533 1.976-6.193zm93.251 12.561c-3.313 0-6.018-1.114-8.117-3.342-2.1-2.227-3.149-5.3-3.149-9.22 0-3.825 1.078-6.875 3.237-9.148 2.157-2.274 4.984-3.413 8.484-3.413 3.054 0 5.771.818 8.15 2.45v5.108h-.139c-2.029-2.215-4.502-3.323-7.418-3.323-2.354 0-4.21.746-5.562 2.238-1.352 1.494-2.029 3.57-2.029 6.23 0 2.728.611 4.81 1.836 6.244 1.225 1.435 2.781 2.152 4.671 2.152 1.68 0 3.043-.455 4.094-1.365 1.049-.908 1.62-2.32 1.713-4.233h-6.927v-.175l1.611-4.06h9.97c.046.608.07 1.342.07 2.206 0 3.894-.967 6.812-2.904 8.747-1.937 1.937-4.467 2.904-7.591 2.904z" fill="#fff"/><path fill-rule="evenodd" clip-rule="evenodd" d="M188.382 32.686l-1.253-4.55-.035-.12a16.177 16.177 0 01-.213-7.511 13.841 13.841 0 00-1.964 4.262 13.783 13.783 0 001.381 10.479 13.756 13.756 0 005.933 5.523 16.353 16.353 0 01-3.849-8.083zm19.281 13.274c-2.96.595-6.056.362-8.915-.703l-4.577-1.193a16.178 16.178 0 01-6.725-3.593 13.79 13.79 0 002.703 3.823c4.764 4.763 12.142 5.319 17.514 1.666zm7.148-3.403l-3.326 3.37-.086.09a16.184 16.184 0 01-6.397 3.94c1.563.124 3.14-.022 4.671-.432a13.75 13.75 0 008.383-6.433 13.766 13.766 0 001.817-7.9 16.369 16.369 0 01-5.062 7.365zm5.691-15.245l1.255 4.552.034.12c.662 2.473.729 5.037.212 7.509a13.801 13.801 0 001.964-4.262c.95-3.546.455-7.3-1.38-10.479a13.774 13.774 0 00-5.934-5.523 16.36 16.36 0 013.849 8.083zm-19.281-13.274c2.96-.595 6.057-.36 8.915.703l4.577 1.194.122.03a16.194 16.194 0 016.603 3.561 13.782 13.782 0 00-2.703-3.82c-4.764-4.765-12.142-5.32-17.514-1.668zm-7.148 3.404l3.326-3.372.086-.088a16.173 16.173 0 016.397-3.939c-1.563-.124-3.14.02-4.671.43a13.764 13.764 0 00-8.383 6.433 13.767 13.767 0 00-1.817 7.9 16.356 16.356 0 015.062-7.364zM41.66 0l12.243 17.632L41.661 6.234 29.418 17.632 41.66 0zm-4.326 60H0l24.911-35.878L5.69 57.024 37.334 60zm8.653 0h37.335L58.41 24.122l19.222 32.902L45.987 60z" fill="#fff"/><path fill-rule="evenodd" clip-rule="evenodd" d="M41.66 53.775c-.366.05-.328.383-.529.83-.154.343-.454.709-.546 1.223-.175.992-.051 2.36-.465 3.034h-3.242c.01-.728.31-1.276.319-2.002.022-2.068-.318-3.072-.231-4.488.128-2.09.663-4.176.974-6.239.1-.667.387-1.034.454-1.744.09-.945-.265-2.35-.784-3.618a12.677 12.677 0 00-1.225-2.299c-.297.23-.928.45-1.852.42-.904-.03-2.093-.31-3.25-.405-1.01-.082-1.897.162-2.865.07-1.765-.17-3.44-.691-4.086-.91-.555.237-1.245.222-2.015.063l-1.536.067c-.24-.008-.216-.263-.036-.317l1.307-.144-1.866-.035c-.274-.002-.294-.398-.032-.431l1.603-.09c.001-.028.002-.056.005-.084l-1.814-.296a.175.175 0 01.009-.35c.634.039 1.269.076 1.903.113.01-.045.02-.09.032-.135a5.524 5.524 0 00-1.434-.532c-.313-.078-.184-.398.072-.39.63.082 1.238.255 1.831.493.57.117.964.092.878-.328-.336-.39-.513-.783-.3-1.186.081-.066.15-.06.201.018.24.656.642.846.969 1.22.256.294.437.652.693.947.32.12 1.02.377 1.839.344.74-.029 1.568-.342 2.476-.365.77-.02 1.527.226 2.252.23.436 0 .825-.226 1.306-.28.304-.035.618-.002.938-.038 1.032-.114 1.76-.91 2.744-1.14.834-.195 1.466.16 2.119.086.47-.054.74-.37 1.035-.582.31-.223.635-.353.738-.751.139-.538.03-1.34.055-1.857-.434.22-.818-1.568-.434-1.598-.001-.406-.146-.809-.092-1.145.074-.455.306-.78.547-1.074.353-.433.767-.78 1.335-.795.57.016.983.362 1.336.795.241.294.473.619.547 1.074.054.336-.09.739-.091 1.145.384.03 0 1.818-.434 1.598.024.517-.084 1.319.055 1.857.103.398.428.528.737.75.295.214.565.529 1.036.583.652.074 1.285-.28 2.118-.086.983.23 1.712 1.026 2.745 1.14.32.036.634.003.936.038.482.054.871.28 1.306.28.727-.004 1.484-.25 2.254-.23.907.023 1.735.336 2.476.365.818.033 1.518-.225 1.839-.344.256-.295.436-.653.693-.947.327-.374.728-.564.968-1.22.052-.078.119-.084.2-.018.215.403.038.796-.298 1.186-.088.42.307.445.877.328a7.572 7.572 0 011.832-.493c.255-.008.384.312.072.39a5.524 5.524 0 00-1.434.532l.031.135 1.904-.112a.175.175 0 01.009.35l-1.814.295.004.084 1.603.09c.263.032.242.43-.031.43-.622.013-1.244.024-1.867.036l1.308.144c.18.054.204.31-.036.317l-1.536-.067c-.77.159-1.46.174-2.015-.063-.646.219-2.322.74-4.086.91-.969.092-1.857-.152-2.865-.07-1.157.095-2.346.374-3.25.404-.925.03-1.556-.189-1.854-.419-.376.545-.85 1.386-1.224 2.3-.519 1.266-.874 2.672-.783 3.617.067.71.354 1.077.454 1.744.31 2.063.846 4.15.974 6.24.086 1.415-.254 2.42-.231 4.487.008.726.308 1.274.318 2.002h-3.241c-.414-.674-.29-2.041-.466-3.034-.092-.514-.39-.88-.546-1.223-.201-.447-.162-.78-.53-.83zm13.354 2.998l18.703-1.759-8.13-13.915 4.538 12.036-15.111 3.638zm-26.706 0L9.604 55.014l8.13-13.915-4.537 12.036 15.111 3.638zM41.66 12.54l-6.95 3.398 6.95-6.471 6.95 6.47-6.95-3.396z" fill="#fff"/><path d="M44.205 20.262l-2.545-4.07-2.545 4.07 2.545 4.07 2.545-4.07z" fill="#fff"/></svg>