<svg width="14" height="16" fill="none" xmlns="http://www.w3.org/2000/svg"><path d="M13.86 4.006a3.942 3.942 0 01-2.404-.814A4.048 4.048 0 019.868 0H7.29l-.003 11.049a2.362 2.362 0 01-1.603 2.243 2.315 2.315 0 01-1.932-.215 2.37 2.37 0 01-1.14-1.993c-.02-1.321 1.034-2.399 2.337-2.399.257 0 .504.043.735.12V6.152A4.912 4.912 0 001.23 7.78a4.936 4.936 0 00-1.22 2.957 4.931 4.931 0 001.904 4.225A4.898 4.898 0 004.943 16a4.9 4.9 0 003.495-1.45 4.924 4.924 0 001.446-3.481l-.013-5.84a6.491 6.491 0 003.996 1.377v-2.6h-.008z" fill="#49A069"/></svg>